<svg width="32" height="32" viewBox="0 0 32 32" fill="none" xmlns="http://www.w3.org/2000/svg">
<g id="Phone">
<path id="Box" fill-rule="evenodd" clip-rule="evenodd" d="M7.24049 4.94601L8.46792 4.70053C9.32077 4.52996 10.1861 4.93011 10.6085 5.6904L12.7024 9.45942C13.136 10.24 12.9997 11.2135 12.3683 11.8449L10.9586 13.2546C10.3098 13.9042 10.1866 14.9121 10.6604 15.6985C11.4555 17.0206 12.3812 18.2096 13.4373 19.2657C14.4933 20.3218 15.6816 21.2466 17.0019 22.0401C17.7884 22.5118 18.795 22.388 19.4439 21.7399L20.8535 20.3302C21.485 19.6988 22.4585 19.5624 23.239 19.9961L27.0081 22.09C27.7684 22.5124 28.1685 23.3777 27.9979 24.2305L27.7525 25.458C27.6351 26.0442 27.2617 26.5472 26.7337 26.8275C21.7799 29.468 16.4042 27.8895 10.6066 22.0919C4.80898 16.2943 3.23044 10.9186 5.87098 5.96478C6.1513 5.43674 6.65429 5.06335 7.24049 4.94601Z" stroke="#464646" stroke-width="2" stroke-linecap="round" stroke-linejoin="round"/>
</g>
</svg>
